<svg width="35" height="35" viewBox="0 0 35 35" fill="none" xmlns="http://www.w3.org/2000/svg">
<rect width="35" height="35" rx="8" fill="#FFEDEE"/>
<path d="M21.1538 10.9188C21.9291 10.9188 22.6726 11.2269 23.2208 11.7752C23.769 12.3235 24.0769 13.0672 24.0769 13.8427M27 13.8427C27.0001 14.6956 26.8137 15.5382 26.4539 16.3114C26.094 17.0846 25.5694 17.7698 24.9169 18.3188C24.2643 18.8678 23.4996 19.2673 22.6764 19.4894C21.8531 19.7116 20.9913 19.7509 20.1512 19.6046C19.6027 19.5101 19.0219 19.6299 18.6283 20.0237L16.0385 22.6142H13.8462V24.8071H11.6538V27H8V24.2535C8 23.6717 8.23092 23.1132 8.6421 22.7029L14.9745 16.3689C15.3681 15.9751 15.4879 15.3943 15.3934 14.8455C15.2553 14.0475 15.2843 13.2294 15.4788 12.4432C15.6733 11.657 16.0289 10.9198 16.5232 10.2782C17.0174 9.63669 17.6395 9.10485 18.35 8.71641C19.0606 8.32797 19.844 8.0914 20.6507 8.0217C21.4574 7.95199 22.2698 8.05067 23.0364 8.31148C23.803 8.57229 24.507 8.98954 25.104 9.53679C25.7009 10.084 26.1776 10.7494 26.504 11.4906C26.8304 12.2318 26.9993 13.0327 27 13.8427Z" stroke="#C32727" stroke-width="1.5" stroke-linecap="round" stroke-linejoin="round"/>
</svg>
