<svg width="35" height="36" viewBox="0 0 35 36" fill="none" xmlns="http://www.w3.org/2000/svg">
<rect y="0.5" width="35" height="35" rx="8" fill="#FFEDEE"/>
<path d="M14.0455 18H18.3636M14.0455 20.9231H18.3636M14.0455 23.8462H18.3636M21.8182 24.5769H24.4091C25.0962 24.5769 25.7552 24.3459 26.2411 23.9348C26.727 23.5237 27 22.9661 27 22.3846V12.2591C27 11.1532 26.027 10.2149 24.7246 10.1233C24.2939 10.0931 23.8628 10.0671 23.4315 10.0453M23.4315 10.0453C23.5079 10.2549 23.5455 10.473 23.5455 10.6923C23.5455 10.8861 23.4545 11.072 23.2925 11.209C23.1305 11.3461 22.9109 11.4231 22.6818 11.4231H17.5C17.0233 11.4231 16.6364 11.0957 16.6364 10.6923C16.6364 10.4672 16.6767 10.2499 16.7515 10.0453M23.4315 10.0453C23.1056 9.15087 22.1199 8.5 20.9545 8.5H19.2273C18.6737 8.50011 18.1347 8.65019 17.6891 8.92827C17.2436 9.20635 16.9151 9.59781 16.7515 10.0453M16.7515 10.0453C16.3185 10.0677 15.8879 10.0941 15.4572 10.1233C14.1548 10.2149 13.1818 11.1532 13.1818 12.2591V14.3462M13.1818 14.3462H9.29545C8.58036 14.3462 8 14.8372 8 15.4423V26.4038C8 27.0089 8.58036 27.5 9.29545 27.5H20.5227C21.2378 27.5 21.8182 27.0089 21.8182 26.4038V15.4423C21.8182 14.8372 21.2378 14.3462 20.5227 14.3462H13.1818ZM11.4545 18H11.4638V18.0078H11.4545V18ZM11.4545 20.9231H11.4638V20.9309H11.4545V20.9231ZM11.4545 23.8462H11.4638V23.8539H11.4545V23.8462Z" stroke="#C32727" stroke-width="1.5" stroke-linecap="round" stroke-linejoin="round"/>
</svg>
