<svg width="25" height="25" viewBox="0 0 25 25" fill="none" xmlns="http://www.w3.org/2000/svg">
<path d="M16.25 9.5V5.75C16.25 5.15326 16.0129 4.58097 15.591 4.15901C15.169 3.73705 14.5967 3.5 14 3.5H8C7.40326 3.5 6.83097 3.73705 6.40901 4.15901C5.98705 4.58097 5.75 5.15326 5.75 5.75V19.25C5.75 19.8467 5.98705 20.419 6.40901 20.841C6.83097 21.2629 7.40326 21.5 8 21.5H14C14.5967 21.5 15.169 21.2629 15.591 20.841C16.0129 20.419 16.25 19.8467 16.25 19.25V15.5M19.25 15.5L22.25 12.5M22.25 12.5L19.25 9.5M22.25 12.5H9.5" stroke="black" stroke-width="1.5" stroke-linecap="round" stroke-linejoin="round"/>
</svg>
