<svg width="21" height="22" viewBox="0 0 21 22" fill="none" xmlns="http://www.w3.org/2000/svg">
<path d="M14.987 3.86225L16.674 2.17425C17.0257 1.82257 17.5027 1.625 18 1.625C18.4973 1.625 18.9743 1.82257 19.326 2.17425C19.6777 2.52592 19.8752 3.0029 19.8752 3.50025C19.8752 3.99759 19.6777 4.47457 19.326 4.82625L8.707 15.4452C8.17832 15.9736 7.52637 16.362 6.81 16.5752L4.125 17.3752L4.925 14.6902C5.13828 13.9739 5.52663 13.3219 6.055 12.7932L14.987 3.86225ZM14.987 3.86225L17.625 6.50025M16.125 13.3752V18.1252C16.125 18.722 15.8879 19.2943 15.466 19.7162C15.044 20.1382 14.4717 20.3752 13.875 20.3752H3.375C2.77826 20.3752 2.20597 20.1382 1.78401 19.7162C1.36205 19.2943 1.125 18.722 1.125 18.1252V7.62525C1.125 7.02851 1.36205 6.45621 1.78401 6.03426C2.20597 5.6123 2.77826 5.37525 3.375 5.37525H8.125" stroke="#303030" stroke-width="1.5" stroke-linecap="round" stroke-linejoin="round"/>
</svg>
