<svg width="400" height="112" viewBox="0 0 400 112" fill="none" xmlns="http://www.w3.org/2000/svg">
<g clip-path="url(#clip0_85_1130)">
<mask id="mask0_85_1130" style="mask-type:luminance" maskUnits="userSpaceOnUse" x="0" y="0" width="400" height="112">
<path d="M399.415 0.257812H0.652344V111.902H399.415V0.257812Z" fill="white"/>
</mask>
<g mask="url(#mask0_85_1130)">
<path fill-rule="evenodd" clip-rule="evenodd" d="M0.890407 81.9017L0.88873 81.9069L0.885254 81.9017H0.890407ZM3.69246 73.7438L0.890407 81.9017H39.0297C57.4146 81.9017 71.9073 72.9077 76.8436 58.5361C80.5546 47.7314 74.741 39.6402 63.3306 38.791L63.4861 38.3372C73.0673 37.0342 82.6747 29.5677 85.7452 20.6273C90.0394 8.12451 82.5938 0.257812 66.4176 0.257812H28.9324L24.1136 14.2878L42.5387 8.10009L62.0729 14.5565C69.8742 11.809 74.0053 11.6382 75.2903 13.4731C70.5023 13.9074 65.4559 15.6204 60.117 18.768C63.2328 18.3646 65.7133 17.9031 67.7315 17.5278C71.5974 16.8086 73.7674 16.405 75.4592 17.3284C70.856 18.4981 66.6555 20.869 62.2484 23.3565C61.9298 23.5362 61.6106 23.7165 61.2898 23.897L59.7577 28.7332L54.9367 32.5152L50.8943 39.7134L47.2813 40.055L45.4568 38.3518L43.4755 39.9232L42.0801 38.2152L41.0349 32.564L42.185 22.9503L38.8074 32.769L33.6546 38.508L31.0853 34.926L25.4631 31.344L29.8676 36.0728L32.5348 40.7187L40.7399 41.5922L43.8922 46.7895L34.463 61.3665L28.1593 61.3273L26.3639 63.1673L21.2406 63.094L25.5757 58.0721L33.2986 57.0672L34.4601 49.698L21.8159 53.4899L17.8045 52.5629L20.5741 54.4076L3.69246 73.7438Z" fill="#C32727"/>
<path d="M93.8512 79.364H76.98L103.227 2.94678H136.243C154.793 2.94678 162.226 12.2141 157.042 27.3082C153.676 37.1074 145.402 45.5793 134.948 49.0197L141.51 79.364H122.404L116.98 51.4012H103.461L93.8564 79.364H93.8512ZM107.438 39.8061H121.961C130.451 39.8061 137.007 35.1993 139.609 27.6254C142.21 20.0515 138.541 15.4447 130.159 15.4447H115.8L107.433 39.8061H107.438Z" fill="#C32727"/>
<path d="M203.242 60.8298H174.915L162.402 79.364H145.083L199.322 2.94678H219.153L220.955 79.364H203.023L203.242 60.8298ZM182.656 48.8587H203.718L204.13 17.5627H203.739L182.651 48.8587H182.656Z" fill="#C32727"/>
<path d="M242.465 79.364L241.616 2.94678H260.5L258.346 62.8938H258.738L297.764 2.94678H316.144L262.801 79.364H242.465Z" fill="#C32727"/>
<path d="M385.359 41.1821C377.011 65.4897 356.763 80.6866 332.905 80.6866C309.048 80.6866 299.239 65.4897 307.588 41.1821C315.937 16.8743 336.146 1.62402 360.061 1.62402C383.975 1.62402 393.727 16.8206 385.359 41.1821ZM324.799 41.1821C319.306 57.1743 324.269 67.2904 337.511 67.2904C350.753 67.2904 362.609 57.1743 368.102 41.1821C373.595 25.19 368.668 14.9662 355.483 14.9662C342.298 14.9662 330.31 25.1363 324.799 41.1821Z" fill="#C32727"/>
<path d="M0.652344 96.9341H374.94" stroke="#C32727" stroke-width="5"/>
<path d="M0.652344 111.902H122.154" stroke="#C32727" stroke-width="5"/>
</g>
</g>
<defs>
<clipPath id="clip0_85_1130">
<rect width="399" height="112" fill="white" transform="translate(0.5)"/>
</clipPath>
</defs>
</svg>
