<svg width="61" height="57" viewBox="0 0 61 57" fill="none" xmlns="http://www.w3.org/2000/svg">
<g clip-path="url(#clip0_155_53)">
<path fill-rule="evenodd" clip-rule="evenodd" d="M0.206522 56.9074L0.205335 56.9108L0.202881 56.9074H0.206522ZM2.18609 51.2298L0.206522 56.9074H27.1509C40.1393 56.9074 50.3781 50.6481 53.8654 40.6463C56.4872 33.1272 52.38 27.4963 44.3187 26.9052L44.4287 26.5894C51.1973 25.6826 57.9849 20.4865 60.1542 14.2646C63.188 5.56355 57.9279 0.0888672 46.4999 0.0888672H20.0174L16.613 9.85275L29.6299 5.54656L43.4303 10.0397C48.9418 8.12766 51.8602 8.0088 52.768 9.28578C49.3855 9.58804 45.8201 10.7801 42.0483 12.9706C44.2498 12.6899 46.0021 12.3688 47.4279 12.1075C50.1589 11.6071 51.6919 11.3262 52.8874 11.9688C49.6353 12.7828 46.6678 14.4328 43.5543 16.1639C43.3293 16.289 43.1037 16.4144 42.877 16.5401L41.7944 19.9056L38.3888 22.5378L35.533 27.5472L32.9804 27.7848L31.6914 26.5996L30.2917 27.6933L29.3058 26.5045L28.5676 22.5716L29.38 15.8812L26.9938 22.7143L23.3536 26.7082L21.5383 24.2156L17.5664 21.7227L20.6781 25.0136L22.5625 28.2467L28.3591 28.8546L30.5861 32.4716L23.9246 42.616L19.4713 42.589L18.2029 43.8693L14.5834 43.8184L17.646 40.3238L23.1019 39.6241L23.9226 34.4959L14.9898 37.1346L12.1559 36.4894L14.1125 37.7732L2.18609 51.2298Z" fill="#C32727"/>
</g>
<defs>
<clipPath id="clip0_155_53">
<rect width="60.7971" height="56.8219" fill="white" transform="translate(0.202881 0.0888672)"/>
</clipPath>
</defs>
</svg>
