<svg width="25" height="24" viewBox="0 0 25 24" fill="none" xmlns="http://www.w3.org/2000/svg">
<path d="M15.6152 8.99954L15.2692 17.9995M10.4812 17.9995L10.1352 8.99954M20.1032 5.78954C20.4452 5.84154 20.7852 5.89654 21.1252 5.95554M20.1032 5.78954L19.0352 19.6725C18.9917 20.2378 18.7363 20.7657 18.3203 21.1508C17.9042 21.5359 17.3581 21.7497 16.7912 21.7495H8.95924C8.39234 21.7497 7.84627 21.5359 7.43022 21.1508C7.01418 20.7657 6.75883 20.2378 6.71524 19.6725L5.64724 5.78954M20.1032 5.78954C18.9491 5.61506 17.789 5.48264 16.6252 5.39254M5.64724 5.78954C5.30524 5.84054 4.96524 5.89554 4.62524 5.95454M5.64724 5.78954C6.80138 5.61506 7.96148 5.48264 9.12524 5.39254M16.6252 5.39254V4.47654C16.6252 3.29654 15.7152 2.31254 14.5352 2.27554C13.4289 2.24018 12.3216 2.24018 11.2152 2.27554C10.0352 2.31254 9.12524 3.29754 9.12524 4.47654V5.39254M16.6252 5.39254C14.129 5.19962 11.6215 5.19962 9.12524 5.39254" stroke="#E02D3C" stroke-width="1.5" stroke-linecap="round" stroke-linejoin="round"/>
</svg>
